<?xml version="1.0" standalone="no"?>
<!DOCTYPE svg PUBLIC "-//W3C//DTD SVG 20010904//EN"
 "http://www.w3.org/TR/2001/REC-SVG-20010904/DTD/svg10.dtd">
<svg version="1.0" xmlns="http://www.w3.org/2000/svg"
 width="512.000000pt" height="512.000000pt" viewBox="0 0 512.000000 512.000000"
 preserveAspectRatio="xMidYMid meet">

<g transform="translate(0.000000,512.000000) scale(0.100000,-0.100000)"
fill="#000000" stroke="none">
<path d="M2909 5073 c-8 -10 -26 -35 -40 -55 -13 -21 -27 -38 -30 -38 -4 0
-14 -21 -24 -47 -10 -27 -31 -69 -47 -94 -15 -25 -28 -54 -28 -62 0 -9 -13
-43 -29 -76 -15 -32 -31 -72 -35 -88 -9 -37 -56 -192 -66 -218 -35 -85 -49
-189 -53 -395 -2 -111 -8 -204 -15 -215 -5 -11 -15 -40 -22 -64 -6 -24 -23
-61 -36 -82 -13 -21 -24 -43 -24 -48 0 -12 -257 -264 -278 -272 -9 -4 -28 -19
-41 -33 -14 -14 -29 -26 -35 -26 -5 0 -21 -11 -35 -24 -15 -13 -51 -36 -81
-52 -117 -61 -203 -132 -239 -197 -29 -52 -29 -160 0 -223 23 -51 86 -119 145
-157 22 -14 52 -39 68 -55 28 -31 29 -33 24 -121 -5 -80 -10 -98 -47 -171 -23
-46 -62 -105 -86 -132 -41 -45 -45 -55 -45 -100 0 -63 35 -181 61 -204 10 -9
29 -22 41 -28 33 -17 31 -27 -12 -84 -27 -35 -45 -73 -54 -112 -8 -32 -17 -63
-20 -68 -12 -20 28 -88 85 -144 32 -33 63 -67 68 -76 28 -55 19 -170 -20 -238
-71 -127 -70 -375 2 -440 10 -9 19 -22 19 -29 0 -20 54 -62 123 -94 70 -33
212 -58 287 -50 138 15 771 -10 811 -32 10 -5 32 -9 48 -9 17 0 73 -11 125
-25 52 -14 106 -25 121 -25 15 0 41 -6 58 -14 71 -31 143 -56 167 -58 15 -1
62 19 115 49 644 370 1095 1002 1234 1733 62 322 59 684 -8 1005 -101 482
-345 932 -695 1280 -359 357 -791 590 -1288 696 -163 34 -151 33 -169 12z"/>
</g>
</svg>
